<svg width="352" height="352" viewBox="0 0 352 352" fill="none" xmlns="http://www.w3.org/2000/svg">
<mask id="mask0_0_1" style="mask-type:alpha" maskUnits="userSpaceOnUse" x="-130" y="-124" width="613" height="601">
<rect x="-130" y="47.7639" width="237.596" height="620.233" transform="rotate(-46.2517 -130 47.7639)" fill="#D9D9D9"/>
</mask>
<g mask="url(#mask0_0_1)">
<path d="M332.418 10.3282H20.9228C14.2954 10.3282 8.92281 15.7008 8.92281 22.3282V43.8705C8.92281 50.4979 14.2954 55.8705 20.9228 55.8705H332.418C339.045 55.8705 344.418 50.4979 344.418 43.8705V22.3282C344.418 15.7008 339.045 10.3282 332.418 10.3282Z" fill="#A258FF"/>
<path d="M332.418 10.3282H20.9228C14.2954 10.3282 8.92281 15.7008 8.92281 22.3282V43.8705C8.92281 50.4979 14.2954 55.8705 20.9228 55.8705H332.418C339.045 55.8705 344.418 50.4979 344.418 43.8705V22.3282C344.418 15.7008 339.045 10.3282 332.418 10.3282Z" fill="#C2185B"/>
<path d="M332.418 80.1602H20.9228C14.2954 80.1602 8.92281 85.5328 8.92281 92.1602V113.703C8.92281 120.33 14.2954 125.703 20.9228 125.703H332.418C339.045 125.703 344.418 120.33 344.418 113.703V92.1602C344.418 85.5328 339.045 80.1602 332.418 80.1602Z" fill="#A258FF"/>
<path d="M332.418 80.1602H20.9228C14.2954 80.1602 8.92281 85.5328 8.92281 92.1602V113.703C8.92281 120.33 14.2954 125.703 20.9228 125.703H332.418C339.045 125.703 344.418 120.33 344.418 113.703V92.1602C344.418 85.5328 339.045 80.1602 332.418 80.1602Z" fill="#C2185B"/>
<path d="M332.418 149.992H20.9228C14.2954 149.992 8.92281 155.364 8.92281 161.992V183.534C8.92281 190.161 14.2954 195.534 20.9228 195.534H332.418C339.045 195.534 344.418 190.161 344.418 183.534V161.992C344.418 155.364 339.045 149.992 332.418 149.992Z" fill="#A258FF"/>
<path d="M332.418 149.992H20.9228C14.2954 149.992 8.92281 155.364 8.92281 161.992V183.534C8.92281 190.161 14.2954 195.534 20.9228 195.534H332.418C339.045 195.534 344.418 190.161 344.418 183.534V161.992C344.418 155.364 339.045 149.992 332.418 149.992Z" fill="#C2185B"/>
<path d="M332.418 219.823H20.9229C14.2955 219.823 8.92294 225.196 8.92294 231.823V253.365C8.92294 259.993 14.2955 265.365 20.9229 265.365H332.418C339.045 265.365 344.418 259.993 344.418 253.365V231.823C344.418 225.196 339.045 219.823 332.418 219.823Z" fill="#A258FF"/>
<path d="M332.418 219.823H20.9229C14.2955 219.823 8.92294 225.196 8.92294 231.823V253.365C8.92294 259.993 14.2955 265.365 20.9229 265.365H332.418C339.045 265.365 344.418 259.993 344.418 253.365V231.823C344.418 225.196 339.045 219.823 332.418 219.823Z" fill="#C2185B"/>
<path d="M332.418 289.654H20.9229C14.2955 289.654 8.92294 295.027 8.92294 301.654V323.197C8.92294 329.824 14.2955 335.197 20.9229 335.197H332.418C339.045 335.197 344.418 329.824 344.418 323.197V301.654C344.418 295.027 339.045 289.654 332.418 289.654Z" fill="#A258FF"/>
<path d="M332.418 289.654H20.9229C14.2955 289.654 8.92294 295.027 8.92294 301.654V323.197C8.92294 329.824 14.2955 335.197 20.9229 335.197H332.418C339.045 335.197 344.418 329.824 344.418 323.197V301.654C344.418 295.027 339.045 289.654 332.418 289.654Z" fill="#C2185B"/>
</g>
</svg>
