<svg width="2371" height="601" viewBox="0 0 2371 601" fill="none" xmlns="http://www.w3.org/2000/svg">
<path d="M618.227 154.091H660.273L759.136 395.568H762.545L861.409 154.091H903.455V445H870.5V223.977H867.659L776.75 445H744.932L654.023 223.977H651.182V445H618.227V154.091ZM1009.31 154.091V445H974.087V154.091H1009.31ZM1079.95 445V154.091H1115.17V298.409H1118.58L1249.26 154.091H1295.29L1173.13 285.341L1295.29 445H1252.67L1151.54 309.773L1115.17 350.682V445H1079.95ZM1352.82 445H1315.88L1422.7 154.091H1459.07L1565.88 445H1528.95L1442.02 200.114H1439.75L1352.82 445ZM1366.45 331.364H1515.32V362.614H1366.45V331.364ZM1841.88 154.091V445H1807.79L1649.26 216.591H1646.42V445H1611.2V154.091H1645.29L1804.38 383.068H1807.22V154.091H1841.88ZM1912.37 445V154.091H2087.94V185.341H1947.6V283.636H2078.85V314.886H1947.6V413.75H2090.21V445H1912.37Z" fill="white"/>
<mask id="mask0_201_2" style="mask-type:alpha" maskUnits="userSpaceOnUse" x="1750" y="181" width="621" height="238">
<rect x="1750" y="418.596" width="237.596" height="620.233" transform="rotate(-90 1750 418.596)" fill="#D9D9D9"/>
</mask>
<g mask="url(#mask0_201_2)">
</g>
<mask id="mask1_201_2" style="mask-type:alpha" maskUnits="userSpaceOnUse" x="0" y="0" width="613" height="601">
<rect y="171.764" width="237.596" height="620.233" transform="rotate(-46.2517 0 171.764)" fill="#D9D9D9"/>
</mask>
<g mask="url(#mask1_201_2)">
<path d="M462.418 134.328H150.923C144.295 134.328 138.923 139.701 138.923 146.328V167.87C138.923 174.498 144.295 179.87 150.923 179.87H462.418C469.045 179.87 474.418 174.498 474.418 167.87V146.328C474.418 139.701 469.045 134.328 462.418 134.328Z" fill="#A258FF"/>
<path d="M462.418 134.328H150.923C144.295 134.328 138.923 139.701 138.923 146.328V167.87C138.923 174.498 144.295 179.87 150.923 179.87H462.418C469.045 179.87 474.418 174.498 474.418 167.87V146.328C474.418 139.701 469.045 134.328 462.418 134.328Z" fill="#C2185B"/>
<path d="M462.418 204.16H150.923C144.295 204.16 138.923 209.533 138.923 216.16V237.703C138.923 244.33 144.295 249.703 150.923 249.703H462.418C469.045 249.703 474.418 244.33 474.418 237.703V216.16C474.418 209.533 469.045 204.16 462.418 204.16Z" fill="#A258FF"/>
<path d="M462.418 204.16H150.923C144.295 204.16 138.923 209.533 138.923 216.16V237.703C138.923 244.33 144.295 249.703 150.923 249.703H462.418C469.045 249.703 474.418 244.33 474.418 237.703V216.16C474.418 209.533 469.045 204.16 462.418 204.16Z" fill="#C2185B"/>
<path d="M462.418 273.992H150.923C144.295 273.992 138.923 279.364 138.923 285.992V307.534C138.923 314.161 144.295 319.534 150.923 319.534H462.418C469.045 319.534 474.418 314.161 474.418 307.534V285.992C474.418 279.364 469.045 273.992 462.418 273.992Z" fill="#A258FF"/>
<path d="M462.418 273.992H150.923C144.295 273.992 138.923 279.364 138.923 285.992V307.534C138.923 314.161 144.295 319.534 150.923 319.534H462.418C469.045 319.534 474.418 314.161 474.418 307.534V285.992C474.418 279.364 469.045 273.992 462.418 273.992Z" fill="#C2185B"/>
<path d="M462.418 343.823H150.923C144.296 343.823 138.923 349.196 138.923 355.823V377.365C138.923 383.993 144.296 389.365 150.923 389.365H462.418C469.045 389.365 474.418 383.993 474.418 377.365V355.823C474.418 349.196 469.045 343.823 462.418 343.823Z" fill="#A258FF"/>
<path d="M462.418 343.823H150.923C144.296 343.823 138.923 349.196 138.923 355.823V377.365C138.923 383.993 144.296 389.365 150.923 389.365H462.418C469.045 389.365 474.418 383.993 474.418 377.365V355.823C474.418 349.196 469.045 343.823 462.418 343.823Z" fill="#C2185B"/>
<path d="M462.418 413.654H150.923C144.296 413.654 138.923 419.027 138.923 425.654V447.197C138.923 453.824 144.296 459.197 150.923 459.197H462.418C469.045 459.197 474.418 453.824 474.418 447.197V425.654C474.418 419.027 469.045 413.654 462.418 413.654Z" fill="#A258FF"/>
<path d="M462.418 413.654H150.923C144.296 413.654 138.923 419.027 138.923 425.654V447.197C138.923 453.824 144.296 459.197 150.923 459.197H462.418C469.045 459.197 474.418 453.824 474.418 447.197V425.654C474.418 419.027 469.045 413.654 462.418 413.654Z" fill="#C2185B"/>
</g>
</svg>
