<svg height="24px" width="24px" viewBox="0 -960 960 960" fill="#e8eaed" xmlns="http://www.w3.org/2000/svg">
  <path d="M 120 -160 L 120 -272 C 120 -294.667 125.833 -315.5 137.5 -334.5 C 149.167 -353.5 164.667 -368 184 -378 C 225.333 -398.667 267.333 -414.167 310 -424.5 C 352.667 -434.833 396 -440 440 -440 C 453.333 -440 466.667 -439.5 480 -438.5 C 493.333 -437.5 506.667 -436 520 -434 C 517.817 -402.344 520.554 -392.401 531.329 -363.649 C 531.329 -363.649 399.586 -372.03 325.714 -351.428 C 309.926 -347.025 294.339 -344.805 273.848 -335.163 C 242.346 -320.34 238.078 -318.498 224.217 -302.956 C 211.282 -288.453 207.813 -283.351 204.155 -264.935 C 200.927 -248.682 202.597 -237.662 202.597 -237.662 L 614 -239.179 L 614 -160 L 120 -160 Z M 760 -40 L 700 -100 L 700 -286 C 670.667 -294.667 646.667 -311.167 628 -335.5 C 609.333 -359.833 600 -388 600 -420 C 600 -458.667 613.667 -491.667 641 -519 C 668.333 -546.333 701.333 -560 740 -560 C 778.667 -560 811.667 -546.333 839 -519 C 866.333 -491.667 880 -458.667 880 -420 C 880 -390 871.5 -363.333 854.5 -340 C 837.5 -316.667 816 -300 790 -290 L 840 -240 L 780 -180 L 840 -120 L 760 -40 Z M 440 -480 C 396 -480 358.333 -495.667 327 -527 C 295.667 -558.333 280 -596 280 -640 C 280 -684 295.667 -721.667 327 -753 C 358.333 -784.333 396 -800 440 -800 C 484 -800 521.667 -784.333 553 -753 C 584.333 -721.667 600 -684 600 -640 C 600 -596 584.333 -558.333 553 -527 C 521.667 -495.667 484 -480 440 -480 Z M 740 -400 C 751.333 -400 760.833 -403.833 768.5 -411.5 C 776.167 -419.167 780 -428.667 780 -440 C 780 -451.333 776.167 -460.833 768.5 -468.5 C 760.833 -476.167 751.333 -480 740 -480 C 728.667 -480 719.167 -476.167 711.5 -468.5 C 703.833 -460.833 700 -451.333 700 -440 C 700 -428.667 703.833 -419.167 711.5 -411.5 C 719.167 -403.833 728.667 -400 740 -400 Z M 439.871 -721.56 C 397.395 -721.56 362.338 -683.377 362.338 -642.468 C 362.338 -602.33 398.182 -563.377 439.871 -563.377 C 484.736 -563.377 518.962 -602.338 518.962 -642.468 C 518.962 -644.209 518.806 -645.935 518.806 -647.653 C 518.806 -687.449 476.891 -721.56 439.871 -721.56 Z"/>
</svg>